<?xml version="1.0" encoding="UTF-8"?>
<svg xmlns="http://www.w3.org/2000/svg" width="64" height="64" viewBox="0 0 64 64">
  <g>
    <path d="M32 8 L8 32 H16 V56 H28 V40 H36 V56 H48 V52 H43 V49 H48 V46 H43 V43 H48
      V32 H56 Z" fill="none" stroke="#000" stroke-width="2"/>
    <rect x="42" y="42.5" width="12" height="1" fill="none" stroke="#000" stroke-width="1"/>
    <rect x="41" y="45.5" width="15" height="1" fill="none" stroke="#000" stroke-width="1"/>
    <rect x="41" y="48.5" width="15" height="1" fill="none" stroke="#000" stroke-width="1"/>
    <rect x="41" y="51.5" width="13" height="1" fill="none" stroke="#000" stroke-width="1"/>

    <rect x="46.5" y="55.5" width="2" height="1" fill="none" stroke="#000" stroke-width="1" transform="rotate(90 56 53)"/>
    <rect x="52.5" y="55.5" width="2" height="1" fill="none" stroke="#000" stroke-width="1" transform="rotate(90 56 53)"/>
    <rect x="55" y="52" width="4" height="2" rx="1" fill="none" stroke="#000" stroke-width="2" transform="rotate(32 55 53)"/>
    <circle cx="48" cy="48" r="8" fill="none" stroke="#000" stroke-width="2"/>
  </g>
</svg>